<svg width="89" height="48" viewBox="0 0 89 48" fill="none" xmlns="http://www.w3.org/2000/svg">
<path d="M68.3877 35.9439V22.906H70.6439V28.4174L70.3339 28.0902C70.552 27.5275 70.908 27.1027 71.4017 26.8156C71.9069 26.5171 72.4925 26.3678 73.1585 26.3678C73.8474 26.3678 74.4559 26.5171 74.9841 26.8156C75.5238 27.1142 75.9429 27.5333 76.2414 28.0729C76.5399 28.6011 76.6892 29.2154 76.6892 29.9158V35.9439H74.433V30.4497C74.433 30.0364 74.3526 29.6804 74.1918 29.3819C74.0311 29.0834 73.8072 28.8537 73.5201 28.693C73.2446 28.5207 72.9173 28.4346 72.5384 28.4346C72.171 28.4346 71.8438 28.5207 71.5567 28.693C71.2697 28.8537 71.0457 29.0834 70.885 29.3819C70.7243 29.6804 70.6439 30.0364 70.6439 30.4497V35.9439H68.3877Z" fill="#075AD8"/>
<path d="M57.3326 39.3885V26.5745H59.451V28.4346L59.2443 27.9696C59.5658 27.4644 60.0022 27.074 60.5533 26.7984C61.1044 26.5114 61.7417 26.3678 62.4651 26.3678C63.3492 26.3678 64.1472 26.586 64.8591 27.0223C65.571 27.4586 66.1336 28.0442 66.5469 28.7791C66.9718 29.5139 67.1842 30.3406 67.1842 31.2592C67.1842 32.1663 66.9775 32.993 66.5642 33.7393C66.1508 34.4857 65.5882 35.077 64.8763 35.5133C64.1644 35.9381 63.3549 36.1506 62.4478 36.1506C61.7704 36.1506 61.1446 36.0185 60.5705 35.7544C60.0079 35.4789 59.5601 35.0885 59.2271 34.5833L59.5888 34.1355V39.3885H57.3326ZM62.1895 34.0838C62.7062 34.0838 63.1655 33.9632 63.5673 33.7221C63.9692 33.481 64.2792 33.148 64.4974 32.7232C64.727 32.2983 64.8418 31.8103 64.8418 31.2592C64.8418 30.7081 64.727 30.2258 64.4974 29.8125C64.2792 29.3876 63.9692 29.0546 63.5673 28.8135C63.1655 28.5609 62.7062 28.4346 62.1895 28.4346C61.6958 28.4346 61.248 28.5552 60.8461 28.7963C60.4557 29.0374 60.1457 29.3761 59.916 29.8125C59.6979 30.2373 59.5888 30.7195 59.5888 31.2592C59.5888 31.8103 59.6979 32.2983 59.916 32.7232C60.1457 33.148 60.4557 33.481 60.8461 33.7221C61.248 33.9632 61.6958 34.0838 62.1895 34.0838Z" fill="#075AD8"/>
<path d="M51.4074 35.9439V26.5745H53.5259V28.6585L53.3536 28.3485C53.5718 27.6481 53.9105 27.1601 54.3698 26.8845C54.8406 26.609 55.4032 26.4712 56.0577 26.4712H56.6088V28.4691H55.7993C55.1563 28.4691 54.6396 28.67 54.2492 29.0719C53.8589 29.4623 53.6637 30.0134 53.6637 30.7253V35.9439H51.4074Z" fill="#075AD8"/>
<path d="M45.2701 36.1506C44.3515 36.1506 43.5133 35.9381 42.7555 35.5133C42.0092 35.0885 41.4121 34.5086 40.9643 33.7738C40.528 33.0389 40.3098 32.2007 40.3098 31.2592C40.3098 30.3177 40.528 29.4795 40.9643 28.7446C41.4121 28.0098 42.0092 27.4299 42.7555 27.0051C43.5019 26.5803 44.34 26.3678 45.2701 26.3678C46.1887 26.3678 47.0211 26.5803 47.7674 27.0051C48.5138 27.4299 49.1051 28.0098 49.5414 28.7446C49.9892 29.468 50.2131 30.3062 50.2131 31.2592C50.2131 32.2007 49.9892 33.0389 49.5414 33.7738C49.0936 34.5086 48.4966 35.0885 47.7502 35.5133C47.0039 35.9381 46.1772 36.1506 45.2701 36.1506ZM45.2701 34.0838C45.7753 34.0838 46.2174 33.9632 46.5963 33.7221C46.9867 33.481 47.2909 33.148 47.5091 32.7232C47.7387 32.2868 47.8536 31.7989 47.8536 31.2592C47.8536 30.7081 47.7387 30.2258 47.5091 29.8125C47.2909 29.3876 46.9867 29.0546 46.5963 28.8135C46.2174 28.5609 45.7753 28.4346 45.2701 28.4346C44.7534 28.4346 44.2999 28.5609 43.9095 28.8135C43.5191 29.0546 43.2091 29.3876 42.9794 29.8125C42.7613 30.2258 42.6522 30.7081 42.6522 31.2592C42.6522 31.7989 42.7613 32.2868 42.9794 32.7232C43.2091 33.148 43.5191 33.481 43.9095 33.7221C44.2999 33.9632 44.7534 34.0838 45.2701 34.0838Z" fill="#075AD8"/>
<path d="M26.0219 35.9439V23.1127H28.2609L33.0662 29.6402H31.9984L36.7003 23.1127H38.9393V35.9439H36.5797V25.7823L37.4925 26.0062L32.6184 32.4993H32.3428L27.5892 26.0062L28.3643 25.7823V35.9439H26.0219Z" fill="#075AD8"/>
<path d="M30.2855 12.7196C30.0246 12.4474 29.8942 12.3113 29.7403 12.2138C29.604 12.1274 29.4545 12.0637 29.2978 12.025C29.121 11.9813 28.9325 11.9813 28.5554 11.9813H22.4641L30.3681 20.229C30.629 20.5012 30.7594 20.6373 30.9133 20.7348C31.0497 20.8212 31.1991 20.885 31.3558 20.9236C31.5326 20.9673 31.7211 20.9673 32.0982 20.9673H38.1895L30.2855 12.7196Z" fill="#A7B4C9"/>
<path d="M20.2176 34.4462H22.4641C22.5322 34.4462 22.5662 34.4462 22.595 34.4474C23.3364 34.4774 23.9306 35.0716 23.9606 35.813C23.9617 35.8417 23.9617 35.8758 23.9617 35.9439H20.2176V34.4462Z" fill="#A7B4C9"/>
<path fill-rule="evenodd" clip-rule="evenodd" d="M30.2856 12.7203C30.0247 12.4479 29.8942 12.3114 29.7403 12.2138C29.604 12.1274 29.4545 12.0637 29.2978 12.025C29.1209 11.9813 28.9321 11.9813 28.5548 11.9813H22.4137C22.0187 11.9813 21.8212 11.9813 21.6371 12.0288C21.474 12.071 21.3191 12.1403 21.179 12.234C21.0209 12.3397 20.8894 12.487 20.6263 12.7816L12.5893 21.7831C12.3641 22.0353 12.2515 22.1614 12.1712 22.3049C12.1 22.4321 12.0478 22.569 12.0161 22.7114C11.9805 22.8719 11.9805 23.0409 11.9805 23.379V33.5476C11.9805 34.3864 11.9805 34.8058 12.1437 35.1261C12.2873 35.408 12.5164 35.6371 12.7982 35.7806C13.1186 35.9439 13.538 35.9439 14.3767 35.9439H23.9617H22.6139C21.7751 35.9439 21.3557 35.9439 21.0353 35.7806C20.7535 35.6371 20.5244 35.408 20.3808 35.1261C20.2176 34.8058 20.2176 34.3864 20.2176 33.5476V23.3914C20.2176 23.0488 20.2176 22.8775 20.2541 22.7151C20.2865 22.5712 20.3401 22.4327 20.4129 22.3044C20.4951 22.1597 20.6103 22.0329 20.8408 21.7795L28.2712 13.6059C28.547 13.3026 28.6848 13.151 28.8281 13.0526C29.2975 12.7301 29.9092 12.7018 30.4064 12.9795C30.5581 13.0642 30.7094 13.2025 31.012 13.479L30.2856 12.7203Z" fill="#075AD8"/>
</svg>
